<svg xmlns="http://www.w3.org/2000/svg" xmlns:xlink="http://www.w3.org/1999/xlink" version="1.1" width="720" height="576" viewBox="0 0 720 576">
<defs>
<clipPath id="clip_0">
<path transform="matrix(1,0,0,-1,0,576)" d="M0 0H720V576H0Z"/>
</clipPath>
<clipPath id="clip_1">
<path transform="matrix(1,0,0,-1,0,576)" d="M73.94122 537.9648H685.16537V564.3684H73.94122Z"/>
</clipPath>
<path id="font_2_12" d="M.4909973 .5053711H.58099368C.5796611 .54469808 .5721588 .5785268 .55848696 .6068573 .54482528 .63519796 .52615866 .65870669 .5024872 .6773834 .4788259 .6960704 .45132957 .7097524 .41999818 .71842959 .38866679 .72710677 .35466514 .7314453 .31799317 .7314453 .2853292 .7314453 .25349427 .72727969 .2224884 .71894839 .19149272 .71061709 .16382854 .6979472 .13949585 .6809387 .11517334 .6639404 .095677699 .64227297 .08100891 .6159363 .066340129 .5896098 .059005739 .55845138 .059005739 .52246096 .059005739 .48979698 .06550598 .46263124 .07850647 .44096376 .09150696 .41929627 .10884094 .4016266 .13050843 .3879547 .1521759 .374293 .17667644 .3632965 .20401001 .3549652 .23134358 .3466339 .25917564 .33929954 .2875061 .33296205 .31583659 .32663474 .3436686 .32047019 .3710022 .31446839 .39833579 .30846659 .4228363 .30063377 .44450379 .29096986 .46617127 .28130595 .48350526 .26880393 .49650575 .25346376 .5095062 .23813375 .51600649 .21813457 .51600649 .19346619 .51600649 .16746521 .51067098 .14613343 .5 .12947083 .4893392 .11280823 .4753418 .09963989 .4580078 .08996582 .44067384 .08030192 .4211731 .07347107 .39950563 .06947327 .37783814 .065475467 .3563385 .06347656 .3350067 .06347656 .30833436 .06347656 .28232829 .06680807 .25698854 .07347107 .23165894 .08013407 .209493 .09046427 .19049073 .10446167 .17149861 .11846924 .15616863 .13630677 .14450073 .15797425 .13283284 .17964173 .1269989 .20547486 .1269989 .23547364H.037002565C.037002565 .19213867 .044835409 .15463765 .0605011 .12297058 .076166789 .091303508 .09749857 .06529236 .12449646 .044937135 .15149434 .024592082 .18282573 .009414673 .2184906-.0005950928 .25416566-.010615031 .29200236-.015625 .33200074-.015625 .3646647-.015625 .39749656-.011789958 .43049623-.004119873 .46349589 .003540039 .4933268 .01586914 .519989 .03286743 .5466614 .049875898 .5684967 .07187907 .585495 .09887695 .6024933 .12587483 .61099246 .15837097 .61099246 .19636536 .61099246 .23170471 .6044922 .2610372 .5914917 .2843628 .5784912 .30769859 .5611572 .32703147 .53948977 .34236146 .51782229 .35770164 .49332176 .36986796 .46598817 .37886048 .43866477 .38786317 .41083274 .395696 .38249208 .402359 .3541616 .4090322 .32632957 .4152018 .29899598 .42086793 .27167259 .42653404 .24717713 .43370057 .22550965 .44236756 .20384217 .45103456 .18650818 .46219889 .17350769 .4758606 .1605072 .48953248 .15400696 .50737 .15400696 .52937319 .15400696 .5526988 .15850322 .5721944 .16749573 .5878601 .17649842 .60353597 .1884969 .616038 .20349121 .6253662 .21849568 .6347046 .23566182 .6413727 .25498963 .6453705 .2743276 .6493683 .29399619 .6513672 .31399537 .6513672 .36333213 .6513672 .40383403 .6398671 .4355011 .61686709 .46716819 .593867 .4856669 .55670168 .4909973 .5053711Z"/>
<path id="font_2_15" d="M.42300416 .3076172H.12600708C.12733968 .3276876 .13167317 .34658305 .13900757 .3643036 .14634197 .3820343 .15634156 .3975881 .16900635 .41096498 .18167115 .42434184 .19683838 .4348755 .21450806 .44256593 .23217774 .45025636 .25200907 .45410157 .27400209 .45410157 .29533387 .45410157 .3148346 .45025636 .33250428 .44256593 .35017396 .4348755 .36550904 .4245046 .37850953 .41145326 .39151 .39841209 .4018402 .38286338 .40950013 .36480714 .4171702 .3467509 .42167155 .3276876 .42300416 .3076172M.5050049 .1640625H.42100526C.41367088 .13019817 .39850364 .10496521 .37550355 .08836365 .35250346 .071772258 .32300315 .06347656 .28700257 .06347656 .25900779 .06347656 .2346751 .068115238 .21400452 .07739258 .19334412 .08666992 .17634583 .099090579 .16300965 .11465454 .14967346 .13022869 .14000447 .14811707 .13400269 .1683197 .1280009 .18853252 .1253357 .2098999 .12600708 .23242188H.5130005C.51433309 .26384483 .51150009 .29694114 .50450137 .33171083 .49750266 .3664805 .48483277 .39857484 .4664917 .42799378 .4481608 .45741273 .42382813 .48164878 .39349366 .5007019 .36315919 .5197652 .32499186 .5292969 .2789917 .5292969 .24366252 .5292969 .2111613 .5226288 .18148804 .5092926 .15182495 .49595643 .12615967 .47728477 .10449219 .4532776 .08282471 .4292806 .065989177 .40094505 .053985597 .36827088 .041992189 .3356069 .035995485 .29961143 .035995485 .26028443 .037328084 .22094727 .04316203 .18461101 .053497316 .15127564 .0638326 .11794027 .079330448 .089269008 .099990848 .06526184 .120661418 .04126485 .14616394 .022598267 .17649842 .009262085 .20683289-.0040740969 .2426656-.0107421879 .28399659-.0107421879 .34267173-.0107421879 .39134217 .00390625 .43000794 .033203126 .4686737 .06251017 .4936727 .10612997 .5050049 .1640625Z"/>
<path id="font_2_16" d="M.5099945 .04411316V.5172882H.42999269V.44326783H.42900086C.41367088 .47194419 .39233909 .49344889 .3650055 .507782 .3376719 .52212527 .30766807 .5292969 .2749939 .5292969 .23032634 .5292969 .19265747 .52079269 .1619873 .5037842 .13132732 .4867859 .106664028 .4651133 .08799744 .43876649 .06933085 .41241966 .05599467 .3830719 .04798889 .35072328 .039993287 .3183848 .035995485 .2868805 .035995485 .25621034 .035995485 .2208608 .040827436 .18734741 .050491334 .15567017 .060165407 .12399292 .07466634 .09631348 .09399414 .072631839 .113332118 .04896037 .13733419 .03012085 .16600037 .016113282 .19466655 .0021158856 .22833252-.0048828127 .2669983-.0048828127 .3003235-.0048828127 .33181764 .002614339 .3614807 .017608643 .39115397 .032613119 .41332499 .05611674 .42799378 .08811951H.42999269V.054122926C.42999269 .025456747 .42715965-.00085957846 .42149354-.02482605 .41582743-.048792524 .406662-.06925964 .3939972-.08622742 .3813324-.10319519 .36533103-.116500858 .34599305-.12614441 .32666526-.13579814 .30299888-.140625 .2749939-.140625 .2609965-.140625 .24633281-.13912456 .23100281-.13612366 .2156728-.13312276 .20150757-.12828572 .18850708-.12161255 .17550659-.11494955 .164505-.106282558 .15550232-.09561157 .14650981-.08495077 .14167786-.07195536 .14100647-.056625368H.055999757C.057332357-.084620159 .06466166-.108296718 .07798767-.12765503 .09132385-.14702352 .108159389-.16274007 .12849427-.17480469 .14882915-.18686931 .17149353-.19558208 .19648743-.200943 .2214915-.20630391 .24599712-.20898438 .27000428-.20898438 .35266624-.20898438 .41333009-.18797302 .45199586-.14595032 .49066163-.10393778 .5099945-.040583295 .5099945 .04411316M.27200318 .06933594C.24399822 .06933594 .22066243 .075164798 .20199585 .08682251 .18333943 .098480228 .16834004 .11380514 .15699768 .13279724 .14566548 .15178935 .1376648 .17294312 .1329956 .19625855 .1283366 .21957398 .12600708 .24289449 .12600708 .2662201 .12600708 .29086814 .12884014 .31451927 .13450623 .33717347 .14017232 .35982768 .14916992 .37981669 .16149903 .3971405 .1738383 .41446433 .18967183 .4282888 .20899964 .4386139 .2283376 .448939 .25167338 .45410157 .27900697 .45410157 .30566917 .45410157 .32833354 .44877116 .34700013 .43811036 .36566673 .42744956 .38082887 .4132894 .39248658 .39562989 .40415446 .37798057 .4126536 .3581594 .417984 .33616639 .42332459 .31418357 .42599488 .29186503 .42599488 .26921083 .42599488 .245224 .42316184 .22123719 .41749574 .19725037 .41182963 .17327373 .40299479 .15178935 .3909912 .13279724 .3789978 .11380514 .36316429 .098480228 .3434906 .08682251 .32382713 .075164798 .29999797 .06933594 .27200318 .06933594Z"/>
<path id="font_2_17" d="M.06399536 .5172882V0H.14900208V.32206727C.14900208 .33207704 .15149944 .34457908 .15649414 .35957337 .16149903 .37457786 .16949971 .38907878 .18049622 .40307618 .19150289 .41708375 .20583599 .4290873 .22349549 .4390869 .24116516 .44909669 .2623342 .45410157 .28700257 .45410157 .30634056 .45410157 .32217408 .45126853 .33450318 .44560243 .34683229 .4399363 .35666404 .43193565 .3639984 .42160035 .3713328 .41126506 .37650047 .39909364 .37950135 .38508607 .38250224 .3710785 .3840027 .3557434 .3840027 .3390808V0H.46899415V.32206727C.46899415 .3620758 .48099265 .39408366 .5049896 .41809083 .52899679 .442098 .56199648 .45410157 .60398867 .45410157 .62465927 .45410157 .64149478 .45110069 .65449526 .44509889 .6674957 .43909709 .67766317 .43092857 .68499758 .42059327 .69233199 .41025798 .6973317 .39808656 .69999697 .38407899 .70266219 .37008158 .70399478 .35508219 .70399478 .3390808V0H.78900149V.37921144C.78900149 .40589396 .7848358 .42874146 .7765045 .4477539 .7681732 .46676637 .7565053 .48227439 .74150088 .49427796 .7264964 .50628158 .7084961 .5151164 .6875 .5207825 .6665039 .52645877 .6430054 .5292969 .6170044 .5292969 .5829976 .5292969 .55182906 .5216268 .52349856 .5062866 .49516807 .49095664 .47233583 .46928916 .45500184 .44128419 .44433085 .47328697 .42599488 .49595643 .3999939 .5092926 .37400309 .5226288 .34500633 .5292969 .31300355 .5292969 .24033101 .5292969 .18466187 .49994914 .1459961 .44125367H.14399719V.5172882H.06399536Z"/>
<path id="font_2_18" d="M.06399536 .5172882V0H.14900208V.29206849C.14900208 .31540428 .15216573 .33690898 .15849304 .35658265 .16483052 .37625633 .17433167 .39342753 .18699646 .4080963 .19966126 .4227651 .2154948 .4340973 .23449707 .4420929 .25349937 .45009867 .27600099 .45410157 .30200196 .45410157 .33466593 .45410157 .3603312 .44476319 .3789978 .42608644 .3976644 .40741984 .40699769 .38208518 .40699769 .3500824V0H.4920044V.3401947C.4920044 .36820985 .48917137 .39372254 .48350526 .4167328 .47783915 .43974305 .46800233 .45958457 .45399476 .47625733 .43999736 .49294029 .42166648 .5059509 .39900209 .5152893 .37633769 .5246277 .3480021 .5292969 .31399537 .5292969 .23732503 .5292969 .18132527 .49794517 .1459961 .4352417H.14399719V.5172882H.06399536Z"/>
<path id="font_2_21" d="M.18200684 .5175781V.671875H.09700012V.5175781H.009002686V.4423828H.09700012V.113098148C.09700012 .08908081 .09933472 .069732669 .104003909 .05505371 .108673099 .040374757 .11583964 .029027304 .12550354 .021011353 .13516744 .013005574 .14783223 .007502238 .16349793 .004501343 .17916362 .0015004476 .19799805 0 .22000122 0H.28500367V.07519531H.2460022C.23266602 .07519531 .22183228 .075693767 .21350098 .076690677 .20516968 .077697757 .19866944 .0798645 .19400025 .08319092 .18934123 .086527507 .18617757 .09119669 .18450928 .09719849 .18284099 .10321045 .18200684 .111216228 .18200684 .12121582V.4423828H.28500367V.5175781H.18200684Z"/>
<path id="font_2_1" d="M0 0Z"/>
<path id="font_2_11" d="M.07800293 .7138672V0H.17300415V.3046875H.40499879C.42833457 .3046875 .44700114 .30118815 .46099855 .29418946 .4750061 .28720094 .4863383 .2778778 .49499513 .2662201 .5036621 .25457255 .5099945 .24092102 .5139923 .2252655 .5180003 .20962017 .52133688 .19314067 .5240021 .17582703 .5273387 .15850322 .5293376 .1408488 .5299988 .12286377 .53067019 .104888919 .5313365 .08807373 .5319977 .07241821 .53266909 .05677287 .5341695 .042622884 .536499 .029968262 .53882858 .017313639 .5433299 .0073242189 .55000308 0H.65600588C.6460063 .011993408 .638504 .025817872 .63349917 .04147339 .62850448 .057128908 .6246694 .07361349 .621994 .090927127 .6193288 .10825094 .6176605 .12590535 .61698916 .14389038 .61632797 .16187541 .615331 .17952983 .6139984 .19685364 .61199447 .21416728 .6091614 .2308197 .60549929 .24681092 .60183718 .26280213 .5961711 .27729289 .588501 .2902832 .5808309 .30327354 .5704956 .3144277 .5574951 .32374574 .5444946 .33307395 .5276642 .33973695 .5070038 .34373475V.34573365C.55033877 .3577372 .58183798 .38007609 .60150149 .41275025 .621165 .44543458 .6309967 .4834493 .6309967 .52679446 .6309967 .58481857 .6118266 .63050338 .5734863 .6638489 .53515627 .6971944 .48199464 .7138672 .41400147 .7138672H.07800293M.3710022 .38476563H.17300415V.63378909H.40899659C.45366416 .63378909 .48599754 .6224518 .5059967 .5997772 .5259959 .57711288 .5359955 .54778036 .5359955 .5117798 .5359955 .4857788 .53149417 .46460978 .52249148 .4482727 .51349899 .43193565 .5015004 .41893006 .48649598 .40925599 .47150169 .39959208 .45399986 .39309184 .43399049 .38975526 .4139913 .38642884 .3929952 .38476563 .3710022 .38476563Z"/>
<path id="font_2_22" d="M.576004 0 .7409973 .51660159H.6529999L.53700259 .093933109H.53500369L.42700196 .51660159H.33399964L.22999573 .093933109H.22799683L.11099243 .51660159H.016998291L.18299866 0H.2749939L.3789978 .4106903H.3809967L.48599244 0H.576004Z"/>
<path id="font_2_13" d="M.5220032 .0022583008C.5073344-.0064086916 .4869995-.0107421879 .46099855-.0107421879 .43900553-.0107421879 .4215088-.0045776369 .4085083 .007751465 .3955078 .020090739 .38900758 .04026286 .38900758 .06826782 .36567179 .04026286 .33850099 .020090739 .30749513 .007751465 .27649943-.0045776369 .2430013-.0107421879 .20700073-.0107421879 .18366497-.0107421879 .16149394-.008076985 .14048767-.002746582 .11949158 .0025838216 .10132853 .01091512 .085998538 .022247315 .07066854 .03357951 .058502199 .048405965 .04949951 .066726688 .040496828 .08505758 .035995485 .10721842 .035995485 .13320923 .035995485 .16253662 .04099528 .18652852 .050994874 .20518494 .060994466 .22384136 .074157718 .23899842 .09048462 .25065614 .10682169 .262324 .12548828 .27115885 .14648438 .27716065 .16749065 .28316245 .18899536 .28816224 .21099854 .29216004 .2343343 .29681907 .25650025 .30031333 .27749635 .30264283 .29849244 .3049825 .31699119 .3083191 .33299256 .3126526 .34899394 .31698609 .36165873 .3233134 .37098695 .33163453 .38032533 .33996583 .3849945 .35213218 .3849945 .36813355 .3849945 .38678996 .38149516 .40178428 .37449647 .41311646 .36749778 .42444865 .3584951 .43311057 .3474884 .43910218 .3364919 .44510398 .3241577 .44910179 .31048585 .45109559 .29682414 .45309959 .2833303 .45410157 .27000428 .45410157 .23400371 .45410157 .20400493 .44729106 .18000794 .43367005 .15601094 .42004905 .14301045 .39430747 .14100647 .3564453H.055999757C.057332357 .38841758 .06399536 .4153951 .07598877 .43737794 .08799235 .45936076 .103993739 .47717796 .12399292 .49082948 .14399211 .504481 .16682434 .51430258 .19248963 .5202942 .21816509 .52629598 .2456665 .5292969 .2749939 .5292969 .29832969 .5292969 .3214976 .5276286 .34449769 .524292 .36749778 .5209656 .3883311 .5141347 .40699769 .50379946 .42566429 .49347434 .44066368 .47897849 .45199586 .4603119 .46332804 .4416555 .46899415 .41733299 .46899415 .38734437V.12145996C.46899415 .10146078 .4701589 .08679708 .4724884 .07746887 .4748281 .06814066 .48266603 .06347656 .4960022 .06347656 .5033366 .06347656 .5120036 .06507365 .5220032 .06826782V.0022583008M.3840027 .26727296C.3733317 .25927735 .35932923 .2534485 .34199525 .24978638 .32467143 .24612427 .3065084 .24312847 .2875061 .24079895 .26850382 .23846944 .2493337 .23580425 .22999573 .23280335 .21066793 .22981262 .19333904 .22498577 .17800904 .21832276 .16267903 .21165975 .150177 .20216878 .14050293 .18984986 .13083904 .17753093 .12600708 .16071575 .12600708 .1394043 .12600708 .12541707 .12884014 .113591518 .13450623 .10392761 .14017232 .09427389 .14750672 .08645121 .1565094 .080459598 .16551209 .07446798 .17601013 .070139568 .18800354 .067474368 .20000713 .064809169 .21267192 .06347656 .22599793 .06347656 .2540029 .06347656 .27800498 .06730652 .29800416 .07496643 .31800334 .08262634 .33433534 .09228007 .34700013 .10392761 .35966493 .11558533 .3689982 .12823995 .375 .14189148 .3810018 .15555318 .3840027 .16837566 .3840027 .18035889V.26727296Z"/>
<path id="font_2_19" d="M.06100464 .5172882V0H.1459961V.23023987C.1459961 .26360575 .14932759 .2931315 .1559906 .31881715 .16266378 .34451295 .17333476 .36636863 .18800354 .38438417 .20267232 .40240989 .2220052 .41609193 .2460022 .4254303 .26999919 .43477885 .29899598 .43945313 .33299256 .43945313V.5292969C.28700257 .53062948 .2490031 .5212911 .21899414 .50128176 .18899536 .48127238 .16366577 .45025636 .14300537 .40823365H.14100647V.5172882H.06100464Z"/>
<path id="font_2_14" d="M.12600708 .25428773C.12600708 .27959696 .12867229 .3042399 .13400269 .32821656 .13934326 .3521932 .14801026 .37350465 .16000366 .39215089 .17200725 .41080729 .18800862 .4257965 .20800781 .43711854 .228007 .44844056 .2523397 .45410157 .28100587 .45410157 .31033326 .45410157 .33533225 .4486033 .3560028 .4376068 .37667338 .42662049 .39350382 .4121348 .40649415 .39414979 .41949464 .37617494 .42899577 .35536195 .43499757 .33171083 .44099937 .30806986 .44400025 .28359477 .44400025 .25828553 .44400025 .23430889 .4411672 .21066284 .4355011 .18734741 .429835 .16404216 .42066957 .14322917 .40800477 .12490845 .39533998 .1065979 .37900798 .091781619 .3590088 .080459598 .3390096 .06913757 .3146769 .06347656 .28601075 .06347656 .25867716 .06347656 .23484294 .06880188 .21450806 .079452518 .19417317 .09011332 .1775055 .10443624 .164505 .122421268 .15150452 .1404063 .14183553 .16088359 .13549805 .18385315 .12917073 .20683289 .12600708 .23031108 .12600708 .25428773M.526001 .0002593994V.7138672H.44099427V.44828797H.43899537C.42965699 .46361796 .41815696 .4764506 .40449525 .4867859 .39083354 .49712119 .3763326 .50545248 .36099244 .5117798 .34566245 .51811727 .33032737 .5226186 .31498719 .5252838 .2996572 .52795919 .2853241 .5292969 .27198792 .5292969 .23266094 .5292969 .19816081 .5221303 .16848755 .50779727 .13882447 .49346415 .11416117 .4741262 .09449768 .44978334 .07483419 .42545066 .060165407 .39694724 .050491334 .36427308 .040827436 .3316091 .035995485 .2969462 .035995485 .26028443 .035995485 .22361247 .04099528 .18893941 .050994874 .15626526 .060994466 .12360128 .07582601 .0949351 .0954895 .07026672 .11516317 .045598348 .13983155 .02592977 .16949463 .011260986 .19915772-.0034077962 .23399353-.0107421879 .27400209-.0107421879 .31000266-.0107421879 .34300233-.0044148766 .3730011 .008239746 .40299989 .020904541 .42499797 .04156494 .43899537 .07022095H.44099427V.0002593994H.526001Z"/>
<path id="font_2_20" d="M.115997318 .16308594H.03100586C.03233846 .1311137 .039001466 .10397339 .050994874 .08166504 .06299845 .05935669 .07899984 .041371664 .09899902 .027709961 .11899821 .014058431 .14199829 .004236857 .16799927-.0017547608 .19400025-.0077463786 .22133382-.0107421879 .25-.0107421879 .27600099-.0107421879 .3021647-.008239746 .3284912-.0032348633 .35482789 .001759847 .37849427 .010584514 .39949037 .023239136 .4204966 .03590393 .4375 .05256653 .4505005 .07322693 .46350099 .09388733 .47000123 .119878139 .47000123 .15119934 .47000123 .17585755 .46516419 .19651795 .4554901 .21318054 .4458262 .22984314 .4331614 .24367269 .41749574 .2546692 .40183006 .26566569 .38382975 .27449546 .36349488 .28115846 .34317018 .28782145 .32234193 .29348756 .30101014 .29815675 .28100077 .30281578 .2609965 .307312 .24099732 .3116455 .22099813 .315979 .20299785 .32130943 .18699646 .32763673 .17100525 .3339742 .157842 .34197489 .14750672 .3516388 .13717143 .3613027 .13200379 .37346397 .13200379 .38812257 .13200379 .40144859 .13533528 .41227723 .14199829 .42060853 .14867147 .42893983 .15733846 .4356028 .16799927 .44059754 .17867024 .44560243 .19050598 .44910179 .20350647 .45109559 .21650696 .45309959 .2293396 .45410157 .2420044 .45410157 .2560018 .45410157 .26983134 .4526011 .28349305 .44960023 .29716493 .4466095 .30966697 .44178263 .32099916 .43511964 .33233134 .42845664 .34166465 .41963197 .34899903 .40864564 .3563334 .3976593 .3606669 .38383994 .3619995 .3671875H.44700624C.44500224 .39853923 .43833415 .4247233 .42700196 .44573976 .41566978 .4667562 .40050254 .48343406 .38150025 .49577333 .36250816 .5081126 .3406779 .51678469 .31600953 .52178958 .29134117 .52679446 .26433818 .5292969 .23500061 .5292969 .21233623 .5292969 .18950399 .5264638 .1665039 .5207977 .14350383 .51513168 .12283834 .50646468 .10450745 .49479676 .08617655 .48313905 .07117716 .46798197 .059509279 .44932557 .04784139 .43066917 .042007448 .40834556 .042007448 .38235475 .042007448 .34902955 .050338746 .32303874 .06700134 .30438233 .08367411 .28572593 .10450745 .27123008 .12950135 .26089479 .15450542 .25056968 .18167115 .24257405 .21099854 .23690796 .2403361 .23124187 .26750184 .22490947 .29249574 .21791077 .3174998 .21092224 .33833314 .20176189 .35499574 .19042969 .3716685 .17909749 .38000489 .16243489 .38000489 .1404419 .38000489 .12445068 .37600199 .11128744 .36799623 .10095215 .3600006 .09062704 .34983317 .08279928 .3374939 .07746887 .3251648 .072138469 .31166587 .068471278 .29699708 .066467288 .28233848 .06447347 .26834107 .06347656 .25500489 .06347656 .2376709 .06347656 .22083538 .06513468 .20449829 .06845093 .18816121 .071777347 .17349243 .07725525 .16049195 .08488464 .14749146 .09252421 .13699341 .10281881 .1289978 .11576843 .1210022 .12871807 .1166687 .14449056 .115997318 .16308594Z"/>
<path id="font_2_2" d="M.2749939 .43865968C.2669983 .44865928 .2589976 .45865885 .25099183 .46865846 .24299622 .47865806 .23566182 .48882548 .22898865 .49916078 .22232564 .50949606 .2168274 .5199941 .2124939 .5306549 .2081604 .54132589 .20599365 .5519969 .20599365 .56266787 .20599365 .5886688 .21466065 .60783389 .23199463 .62016299 .24932862 .63250228 .2679952 .6386719 .28799439 .6386719 .31332398 .6386719 .33332316 .6311696 .34799195 .61616519 .36266075 .6011607 .36999513 .58332827 .36999513 .56266787 .36999513 .5473277 .36699424 .53349307 .36099244 .52116397 .35499064 .50883486 .34732057 .4976705 .33798219 .4876709 .32865397 .4776713 .31832377 .4686686 .30699159 .46066285 .2956594 .45266725 .2849935 .44533286 .2749939 .43865968M.45799256 .08929443 .5339966 .000289917H.6450043L.5059967 .16119385C.5133311 .17718506 .5196635 .19134014 .5249939 .20365906 .5303345 .21598816 .5348358 .22848003 .5384979 .24113465 .5421702 .25379945 .5451711 .267629 .5475006 .2826233 .54983016 .29761759 .5519969 .31577555 .55400088 .33709718H.4730072C.4710032 .30044557 .46333314 .26346336 .44999696 .22615052L.32099916 .38305665C.33833314 .39305625 .35500083 .40421549 .3710022 .41653443 .38700358 .42886354 .40133668 .442688 .41400147 .4580078 .42666627 .4733378 .43666587 .49016319 .44400025 .5084839 .45133464 .5268046 .45500184 .5466258 .45500184 .5679474 .45500184 .5919342 .4501648 .61308798 .44049073 .6314087 .4308268 .64973959 .41799418 .6650645 .4019928 .6773834 .3860016 .6897125 .36750285 .69887289 .34649659 .7048645 .3255005 .7108663 .30400086 .7138672 .28199769 .7138672 .2559967 .7138672 .23299663 .7098694 .21299744 .7018738 .19299825 .6938782 .17616272 .6830495 .16249085 .6693878 .14882915 .65572616 .13849895 .6400655 .13150025 .622406 .12450155 .60475668 .1210022 .5862681 .1210022 .5669403 .1210022 .54895529 .123168949 .5327962 .12750244 .51846316 .13183594 .5041402 .13783264 .4904836 .14549256 .4774933 .15316265 .46450297 .16166179 .45167542 .17098999 .43901063 .18032837 .426356 .18999736 .41303 .19999695 .3990326 .17733257 .38703919 .15583293 .37421165 .13549805 .36054994 .11516317 .3468984 .09749349 .3315735 .08248901 .3145752 .06749471 .29758708 .055496217 .27843223 .04649353 .2571106 .03750102 .23578899 .03300476 .21113587 .03300476 .18315125 .03300476 .16849263 .035502118 .15016683 .040496828 .12817383 .04550171 .106191 .05600484 .084869388 .072006229 .064208988 .08800761 .043558759 .110672 .025904337 .13999939 .011245728 .16933696-.0034128826 .20800273-.0107421879 .2559967-.0107421879 .29533387-.0107421879 .3335012-.0024058026 .37049867 .014266968 .40749613 .030949912 .43666078 .055959066 .45799256 .08929443M.24699402 .34547425 .41099549 .14846802C.3936615 .12246704 .37216188 .10180155 .34649659 .08647156 .3208313 .07114156 .29166667 .06347656 .2590027 .06347656 .2416687 .06347656 .22483318 .066472377 .2084961 .07246399 .19216919 .07846578 .17766826 .086634319 .16499329 .096969608 .15232849 .10730489 .14216106 .11996969 .13449097 .13496399 .12683106 .14996846 .1230011 .16647339 .1230011 .18447876 .1230011 .20581055 .1263326 .22430928 .1329956 .23997498 .13966878 .25564067 .14867147 .2698059 .16000366 .2824707 .17133586 .2951355 .1844991 .30646769 .19949341 .3164673 .21449788 .3264669 .23033142 .33613587 .24699402 .34547425Z"/>
<path id="font_2_10" d="M.07800293 .7138672V0H.17300415V.32714845H.5010071V.40722657H.17300415V.63378909H.5469971V.7138672H.07800293Z"/>
<clipPath id="clip_3">
<path transform="matrix(1,0,0,-1,0,576)" d="M26.97626 9.809397H696.45358V564.3684H26.97626Z"/>
</clipPath>
<clipPath id="clip_4">
<path transform="matrix(1,0,0,-1,0,576)" d="M56.55626 41.89526H65.11626V55.61526H56.55626Z"/>
</clipPath>
<path id="font_2_3" d="M.13200379 .34913636C.13200379 .36644999 .13217163 .3855896 .13250733 .40655519 .13284302 .4275309 .13450623 .44850669 .13749695 .46948243 .14049785 .49045817 .14483135 .5109355 .15049744 .5309143 .15616353 .5508931 .16449483 .56836959 .17549134 .5833435 .186498 .59832766 .20033264 .6104787 .21699524 .61979678 .23366802 .62912496 .2540029 .63378909 .27799989 .63378909 .30199687 .63378909 .32232667 .62912496 .33898927 .61979678 .35566203 .6104787 .36949668 .59832766 .38049317 .5833435 .39149986 .56836959 .3998362 .5508931 .40550233 .5309143 .41116844 .5109355 .41549684 .49045817 .41848756 .46948243 .42148844 .44850669 .42315675 .4275309 .42349244 .40655519 .42382813 .3855896 .42399598 .36644999 .42399598 .34913636 .42399598 .3224945 .42316184 .2926941 .42149354 .2597351 .41982524 .22677613 .41448976 .19581096 .40548707 .1668396 .39649455 .13787842 .3819987 .11340841 .3619995 .093429569 .34200035 .0734609 .31400047 .06347656 .27799989 .06347656 .24199932 .06347656 .21399944 .0734609 .19400025 .093429569 .17400106 .11340841 .15950012 .13787842 .15049744 .1668396 .14150493 .19581096 .13617452 .22677613 .13450623 .2597351 .13283794 .2926941 .13200379 .3224945 .13200379 .34913636M.042007448 .348114C.042007448 .3221334 .042673749 .29514567 .044006349 .26715089 .045338949 .23916626 .048670453 .21184285 .054000856 .18518067 .05934143 .15852864 .06701151 .133372 .07701111 .10971069 .087010707 .0860494 .10067749 .06522115 .118011478 .047225954 .13534546 .029240927 .1571757 .01508077 .1835022 .0047454836 .20983887-.0055796306 .24133809-.0107421879 .27799989-.0107421879 .31534324-.0107421879 .34701029-.0055796306 .3730011 .0047454836 .39900209 .01508077 .42066957 .029240927 .43800355 .047225954 .45533753 .06522115 .4690043 .0860494 .4790039 .10971069 .4890035 .133372 .4966685 .15852864 .5019989 .18518067 .5073395 .21184285 .5106761 .23916626 .51200869 .26715089 .51334127 .29514567 .51400759 .3221334 .51400759 .348114 .51400759 .37410484 .51334127 .40109254 .51200869 .42907716 .5106761 .45707194 .5073395 .48439536 .5019989 .51104739 .4966685 .53770956 .4890035 .56303408 .4790039 .5870209 .4690043 .6110179 .45533753 .632014 .43800355 .65000918 .42066957 .66800436 .39883424 .68233236 .37249757 .69299319 .34617106 .703654 .31467185 .7089844 .27799989 .7089844 .24133809 .7089844 .20983887 .703654 .1835022 .69299319 .1571757 .68233236 .13534546 .66800436 .118011478 .65000918 .10067749 .632014 .087010707 .6110179 .07701111 .5870209 .06701151 .56303408 .05934143 .53770956 .054000856 .51104739 .048670453 .48439536 .045338949 .45707194 .044006349 .42907716 .042673749 .40109254 .042007448 .37410484 .042007448 .348114Z"/>
<clipPath id="clip_5">
<path transform="matrix(1,0,0,-1,0,576)" d="M26.97626 161.5176H65.11626V175.2376H26.97626Z"/>
</clipPath>
<path id="font_2_4" d="M.3560028 0V.7089844H.29100038C.28633119 .6823527 .27766419 .66038009 .2649994 .6430664 .2523346 .62576296 .23683167 .6121165 .2184906 .6021271 .20015972 .5921478 .17966207 .58532717 .15699768 .58166506 .1343333 .5780029 .1110026 .5761719 .087005618 .5761719V.5078125H.2709961V0H.3560028Z"/>
<path id="font_2_8" d="M.47000123 .6220703V.6972656H.11999512L.054000856 .32859803 .1269989 .32460023C.1436615 .3445994 .16282654 .36076356 .18449402 .37309266 .2061615 .38543193 .23099773 .39160157 .2590027 .39160157 .28299967 .39160157 .30482994 .38760887 .3244934 .3796234 .34416709 .37164817 .3610026 .3605143 .375 .34622193 .38900758 .33192954 .3998413 .31497193 .40750123 .29534913 .4151713 .27573649 .41900636 .25429789 .41900636 .23103333 .41900636 .20310974 .41500346 .17867534 .40699769 .1577301 .39900209 .13678487 .38816834 .11932882 .37449647 .10536194 .36083476 .091405238 .34483338 .08093262 .3264923 .07394409 .3081614 .06696574 .28899638 .06347656 .2689972 .06347656 .2476654 .06347656 .22816468 .06664022 .210495 .07296753 .19282532 .079305019 .17749024 .0883077 .16448975 .099975589 .15148926 .11164347 .14115398 .12531026 .13348389 .14097595 .12582398 .15664165 .12132772 .17347209 .11999512 .19146729H.035003663C.03567505 .15947469 .042007448 .13080852 .054000856 .10546875 .06600443 .08013916 .082336429 .058949789 .102996829 .041900636 .1236674 .024861655 .14750164 .0118255619 .17449951 .0027923585 .20149739-.0062306725 .23033142-.0107421879 .2610016-.0107421879 .30233256-.0107421879 .33849589-.0042521159 .36949159 .008728027 .40049745 .021718344 .42633058 .039204915 .44699098 .061187746 .46766154 .08317057 .48316447 .10831197 .49349977 .13661194 .503835 .16492208 .5090027 .19406128 .5090027 .22402954 .5090027 .2646586 .5030009 .30012513 .4909973 .33042909 .4790039 .36073304 .4626719 .38604228 .44200135 .4063568 .42133079 .42667137 .396993 .44182334 .36898805 .45181275 .34099327 .46180216 .31133018 .46679688 .27999879 .46679688 .2560018 .46679688 .23183187 .46261598 .20748902 .45425416 .18315633 .4459025 .163325 .43303935 .147995 .41566468L.1459961 .41766358 .18400574 .6220703H.47000123Z"/>
<path id="font_6_1" d="M0 0Z"/>
<clipPath id="clip_7">
<path transform="matrix(1,0,0,-1,0,576)" d="M26.97626 281.14H65.11626V294.86003H26.97626Z"/>
</clipPath>
<path id="font_2_6" d="M.21800232 .4052887V.3330078C.23400371 .33496095 .25100199 .3359375 .2689972 .3359375 .29032899 .3359375 .3101603 .33310954 .3284912 .3274536 .34683229 .3217977 .3626658 .31314598 .37599183 .3014984 .389328 .28986106 .3999939 .27555848 .4079895 .2585907 .41599528 .24162293 .41999818 .22216289 .41999818 .20021057 .41999818 .17891948 .41583253 .15979004 .40750123 .14282227 .39916993 .12585449 .3880005 .11154684 .37399293 .09989929 .3599955 .088261928 .34366355 .07927958 .32499696 .07295227 .30633036 .06663513 .28666688 .06347656 .26600648 .06347656 .21734111 .06347656 .18033855 .07797241 .15499878 .10696411 .12966919 .13596599 .1163381 .173467 .11500549 .21946717H.02999878C.029337565 .18280538 .034505208 .1501414 .04550171 .12147522 .05649821 .092809047 .07232666 .068618778 .09298706 .04890442 .11365763 .029200236 .13865662 .014333089 .16798401 .0043029787 .19732158-.0057271325 .22999065-.0107421879 .2659912-.0107421879 .29932658-.0107421879 .3308258-.006245931 .3604889 .002746582 .39016215 .011749268 .41599528 .025248209 .43798829 .04324341 .45999146 .061238607 .4774933 .083730068 .49049378 .11071777 .50349429 .13771566 .5099945 .1688792 .5099945 .20420838 .5099945 .24686177 .49949647 .2838491 .47850038 .3151703 .45750428 .34650169 .42533876 .36683146 .38200379 .37615968V.37815858C.40999858 .39082337 .43332926 .40947978 .45199586 .4341278 .47066245 .458786 .47999574 .48710633 .47999574 .51908877 .47999574 .55173239 .4744924 .5800476 .46348573 .6040344 .45248924 .62802127 .437322 .64767459 .417984 .6629944 .39865623 .6783244 .37582398 .68981936 .3494873 .69747927 .3231608 .70514938 .29466249 .7089844 .2639923 .7089844 .22866313 .7089844 .19749959 .70330306 .17050171 .6919403 .14350383 .6805776 .1210022 .6648763 .102996829 .6448364 .085001628 .6248067 .07116699 .60078939 .06149292 .5727844 .05182902 .5447896 .04633077 .5137889 .04499817 .4797821H.13000489C.13000489 .5004527 .13267009 .5201213 .13800049 .53878787 .14334107 .5574544 .1515096 .57378646 .1625061 .5877838 .17350261 .6017812 .1875 .61294558 .20449829 .62127688 .22149658 .62961837 .24133301 .63378909 .26400758 .63378909 .30000816 .63378909 .33000694 .6243083 .3540039 .6053467 .3780009 .58639529 .3899994 .55795797 .3899994 .5200348 .3899994 .5014089 .38633219 .48477683 .3789978 .47013856 .37166343 .45551048 .36182658 .44337464 .3494873 .43373109 .3371582 .42408753 .3228251 .4167684 .30648805 .41177369 .29016114 .40678916 .2730001 .40429688 .25500489 .40429688H.23699951C.23366292 .40429688 .23033142 .40429688 .227005 .40429688 .2243398 .40429688 .22133892 .40462748 .21800232 .4052887Z"/>
<clipPath id="clip_8">
<path transform="matrix(1,0,0,-1,0,576)" d="M26.97626 400.7624H65.11626V414.4824H26.97626Z"/>
</clipPath>
<path id="font_2_7" d="M.33900453 .24121094H.100997928L.33700563 .5879822H.33900453V.24121094M.41900636 .24121094V.7089844H.35099793L.027999878 .24801636V.16601563H.33900453V0H.41900636V.16601563H.5149994V.24121094H.41900636Z"/>
<clipPath id="clip_9">
<path transform="matrix(1,0,0,-1,0,576)" d="M26.97626 520.3848H65.11626V534.1048H26.97626Z"/>
</clipPath>
<path id="font_2_9" d="M.41400147 .5283203H.49899293C.4936625 .58687338 .47366334 .6316223 .43899537 .66256716 .4043274 .69351199 .35766093 .7089844 .29899598 .7089844 .24833679 .7089844 .20633953 .6983185 .17300415 .6769867 .13966878 .6556651 .1130015 .6273448 .09300232 .59202578 .073003139 .5567067 .058832807 .5162201 .050491334 .4705658 .042160036 .42492167 .037994386 .3777771 .037994386 .32913209 .037994386 .29180909 .040827436 .25315348 .04649353 .21316529 .052159627 .17318726 .06365967 .13653565 .08099365 .10321045 .09832764 .069895427 .12299601 .04257202 .15499878 .021240235 .18700154-.00008138021 .22933452-.0107421879 .28199769-.0107421879 .32666526-.0107421879 .36416627-.003245036 .39450074 .011749268 .4248352 .02674357 .44916789 .045735677 .46749879 .068725589 .48582969 .09171549 .49899293 .11720276 .5069885 .14518738 .5149943 .173172 .5189972 .20015972 .5189972 .22615052 .5189972 .25880433 .5139974 .28912355 .5039978 .31710816 .4939982 .34510295 .47982789 .36942546 .46148683 .39007569 .4431559 .41073609 .42049156 .42689515 .39349366 .43855287 .36649577 .45022074 .33599855 .4560547 .30200196 .4560547 .26333619 .4560547 .22916667 .4487203 .19949341 .4340515 .16983032 .4193929 .14499919 .3957316 .125 .36306764L.1230011 .36506654C.123662319 .39240013 .12632752 .42171733 .1309967 .4530182 .1356659 .48432923 .14416504 .5134633 .15649414 .54042056 .16883342 .5673879 .18599956 .58969119 .20799256 .6073303 .22999573 .6249695 .2589976 .63378909 .29499818 .63378909 .32899476 .63378909 .35632835 .62417098 .3769989 .6049347 .39766947 .5856984 .41000367 .56016036 .41400147 .5283203M.28601075 .38085938C.31000773 .38085938 .33100382 .37653099 .34899903 .36787416 .3670044 .3592275 .38200379 .3477529 .3939972 .33345033 .40600077 .31914775 .4148356 .30217997 .4205017 .282547 .42616783 .2629242 .42900086 .24213155 .42900086 .22016907 .42900086 .19954936 .42583213 .17975362 .41949464 .16078186 .41316734 .14182027 .40400187 .12502034 .3919983 .11038208 .38000489 .09574381 .36517335 .08426412 .34750367 .07594299 .32983399 .06763204 .30933634 .06347656 .28601075 .06347656 .26267497 .06347656 .24183655 .06763204 .22349549 .07594299 .2051646 .08426412 .1898346 .09540812 .1775055 .109375 .16517639 .12335205 .15567525 .13998921 .14900208 .1592865 .14233907 .17858379 .13900757 .19921367 .13900757 .22117615 .13900757 .24312847 .14217122 .26391603 .14849854 .28353883 .15483602 .30317179 .16433716 .32013957 .17700196 .33444215 .18966675 .34875489 .20499675 .36006675 .22299195 .3683777 .24099732 .37669883 .26200358 .38085938 .28601075 .38085938Z"/>
<clipPath id="clip_10">
<path transform="matrix(1,0,0,-1,0,576)" d="M26.97626 9.809397H696.45358V564.3684H26.97626Z"/>
</clipPath>
<clipPath id="clip_11">
<path transform="matrix(1,0,0,-1,0,576)" d="M70.66122 31.71029H79.221218V45.43029H70.66122Z"/>
</clipPath>
<clipPath id="clip_12">
<path transform="matrix(1,0,0,-1,0,576)" d="M186.946 31.71029H206.626V45.43029H186.946Z"/>
</clipPath>
<clipPath id="clip_13">
<path transform="matrix(1,0,0,-1,0,576)" d="M308.7909 31.71029H328.4709V45.43029H308.7909Z"/>
</clipPath>
<path id="font_2_5" d="M.044006349 .45777894H.1289978C.1283366 .47912089 .13050334 .5002899 .13549805 .521286 .14050293 .5422821 .14867147 .56111147 .16000366 .57777407 .17133586 .59444686 .18583171 .60795089 .20349121 .61828616 .22116089 .6286214 .24232991 .63378909 .2669983 .63378909 .2856649 .63378909 .30332948 .63078817 .31999208 .6247864 .33666484 .61879476 .35116578 .6101329 .36349488 .59880068 .37583415 .58746847 .385671 .57396957 .39300538 .55830386 .40033976 .5426483 .40400697 .5251567 .40400697 .50582888 .40400697 .48117066 .4001719 .45950828 .39250184 .44084168 .38483177 .42218528 .37349449 .40486146 .35849 .38887025 .3434957 .37287904 .32466636 .35705058 .30200196 .3413849 .27933757 .32572938 .25300599 .30856834 .2230072 .28990174 .19833882 .27524314 .17466736 .25958253 .1519928 .24291992 .12932842 .22625733 .10899353 .20692952 .09098816 .18493653 .07299296 .16294353 .05816142 .13711548 .04649353 .10745239 .034835817 .07779948 .027338664 .041982015 .024002076 0H.4869995V.07519531H.1230011C.1269989 .09718832 .13549805 .11667887 .14849854 .13366699 .16149903 .15066529 .17716472 .16649373 .1954956 .18115235 .21383667 .19582112 .23400371 .20965068 .2559967 .22264099 .27799989 .23564148 .30000306 .24880474 .32200624 .26213075 .34399925 .27612815 .36533103 .29079185 .3860016 .30612184 .40667216 .3214518 .42500306 .33861289 .44099427 .35760499 .45699565 .37659709 .46982829 .39808656 .4794922 .42207337 .48916627 .44607035 .4940033 .47372947 .4940033 .50505068 .4940033 .53837588 .48816935 .5676982 .47650147 .5930176 .4648336 .61834719 .44900004 .63950607 .42900086 .65649417 .40900169 .67349246 .38550315 .68648788 .35850526 .69548037 .33150736 .70448306 .30267335 .7089844 .27200318 .7089844 .23467 .7089844 .20133464 .70263168 .17199707 .68992617 .14266968 .67723086 .11816915 .6596985 .09849548 .6373291 .07883199 .6149699 .064331058 .5884552 .054992677 .55778506 .04566447 .52711489 .04200236 .4937795 .044006349 .45777894Z"/>
<clipPath id="clip_14">
<path transform="matrix(1,0,0,-1,0,576)" d="M430.6357 31.71029H450.3157V45.43029H430.6357Z"/>
</clipPath>
<clipPath id="clip_15">
<path transform="matrix(1,0,0,-1,0,576)" d="M552.4805 31.71029H572.1605V45.43029H552.4805Z"/>
</clipPath>
<clipPath id="clip_16">
<path transform="matrix(1,0,0,-1,0,576)" d="M674.3253 31.71029H694.0053V45.43029H674.3253Z"/>
</clipPath>
<clipPath id="clip_17">
<path transform="matrix(1,0,0,-1,0,576)" d="M26.97626 9.809397H696.45358V564.3684H26.97626Z"/>
</clipPath>
<clipPath id="clip_18">
<path transform="matrix(1,0,0,-1,0,576)" d="M72.54122 46.35526H686.5653V196.3104H72.54122Z"/>
</clipPath>
<clipPath id="clip_19">
<path transform="matrix(1,0,0,-1,0,576)" d="M72.54122 46.35526H686.5653V529.6448H72.54122Z"/>
</clipPath>
<clipPath id="clip_20">
<path transform="matrix(1,0,0,-1,0,576)" d="M26.97626 9.809397H696.45358V564.3684H26.97626Z"/>
</clipPath>
<clipPath id="clip_21">
<path transform="matrix(1,0,0,-1,0,576)" d="M72.54122 50.72379H686.5653V473.3236H72.54122Z"/>
</clipPath>
<clipPath id="clip_22">
<path transform="matrix(1,0,0,-1,0,576)" d="M72.54122 46.35526H686.5653V529.6448H72.54122Z"/>
</clipPath>
<clipPath id="clip_23">
<path transform="matrix(1,0,0,-1,0,576)" d="M26.97626 9.809397H696.45358V564.3684H26.97626Z"/>
</clipPath>
<clipPath id="clip_24">
<path transform="matrix(1,0,0,-1,0,576)" d="M232 12.49966H244V21.50034H232Z"/>
</clipPath>
<clipPath id="clip_25">
<path transform="matrix(1,0,0,-1,0,576)" d="M232 11H244V23H232Z"/>
</clipPath>
<clipPath id="clip_26">
<path transform="matrix(1,0,0,-1,0,576)" d="M26.97626 9.809397H696.45358V564.3684H26.97626Z"/>
</clipPath>
<clipPath id="clip_27">
<path transform="matrix(1,0,0,-1,0,576)" d="M476 12.49966H488V21.50034H476Z"/>
</clipPath>
<clipPath id="clip_28">
<path transform="matrix(1,0,0,-1,0,576)" d="M476 11H488V23H476Z"/>
</clipPath>
</defs>
<g>
<g clip-path="url(#clip_0)">
<path transform="matrix(1,0,0,-1,0,576)" d="M0 576H720V-.999979H0Z" fill="#ffffff"/>
</g>
<g clip-path="url(#clip_1)">
<use data-text="S" xlink:href="#font_2_12" transform="matrix(21.3,0,0,-21.3,256.4712,32.498414)"/>
<use data-text="e" xlink:href="#font_2_15" transform="matrix(21.3,0,0,-21.3,270.2736,32.498414)"/>
<use data-text="g" xlink:href="#font_2_16" transform="matrix(21.3,0,0,-21.3,281.7117,32.498414)"/>
<use data-text="m" xlink:href="#font_2_17" transform="matrix(21.3,0,0,-21.3,293.9379,32.498414)"/>
<use data-text="e" xlink:href="#font_2_15" transform="matrix(21.3,0,0,-21.3,312.10679,32.498414)"/>
<use data-text="n" xlink:href="#font_2_18" transform="matrix(21.3,0,0,-21.3,323.5449,32.498414)"/>
<use data-text="t" xlink:href="#font_2_21" transform="matrix(21.3,0,0,-21.3,335.3877,32.498414)"/>
<use data-text=" " xlink:href="#font_2_1" transform="matrix(21.3,0,0,-21.3,342.0972,32.498414)"/>
<use data-text="R" xlink:href="#font_2_11" transform="matrix(21.3,0,0,-21.3,348.01863,32.498414)"/>
<use data-text="e" xlink:href="#font_2_15" transform="matrix(21.3,0,0,-21.3,362.6091,32.498414)"/>
<use data-text="w" xlink:href="#font_2_22" transform="matrix(21.3,0,0,-21.3,374.0472,32.498414)"/>
<use data-text="a" xlink:href="#font_2_13" transform="matrix(21.3,0,0,-21.3,390.1926,32.498414)"/>
<use data-text="r" xlink:href="#font_2_19" transform="matrix(21.3,0,0,-21.3,401.63069,32.498414)"/>
<use data-text="d" xlink:href="#font_2_14" transform="matrix(21.3,0,0,-21.3,408.34019,32.498414)"/>
<use data-text="s" xlink:href="#font_2_20" transform="matrix(21.3,0,0,-21.3,420.97108,32.498414)"/>
<use data-text=" " xlink:href="#font_2_1" transform="matrix(21.3,0,0,-21.3,431.6211,32.498414)"/>
<use data-text="&amp;" xlink:href="#font_2_2" transform="matrix(21.3,0,0,-21.3,437.54249,32.498414)"/>
<use data-text=" " xlink:href="#font_2_1" transform="matrix(21.3,0,0,-21.3,450.9615,32.498414)"/>
<use data-text="F" xlink:href="#font_2_10" transform="matrix(21.3,0,0,-21.3,456.88288,32.498414)"/>
<use data-text="e" xlink:href="#font_2_15" transform="matrix(21.3,0,0,-21.3,469.10908,32.498414)"/>
<use data-text="e" xlink:href="#font_2_15" transform="matrix(21.3,0,0,-21.3,480.54719,32.498414)"/>
<use data-text="s" xlink:href="#font_2_20" transform="matrix(21.3,0,0,-21.3,491.9853,32.498414)"/>
</g>
<g clip-path="url(#clip_3)">
<path transform="matrix(1,0,0,1,26.97626,11.631592)" stroke-width=".5" stroke-linecap="butt" stroke-miterlimit="4" stroke-linejoin="miter" fill="none" stroke="#b8b8b8" d="M48.02374 395.8684H657.0237"/>
<path transform="matrix(1,0,0,1,26.97626,11.631592)" stroke-width=".5" stroke-linecap="butt" stroke-miterlimit="4" stroke-linejoin="miter" fill="none" stroke="#b8b8b8" d="M48.02374 275.8684H657.0237"/>
<path transform="matrix(1,0,0,1,26.97626,11.631592)" stroke-width=".5" stroke-linecap="butt" stroke-miterlimit="4" stroke-linejoin="miter" fill="none" stroke="#b8b8b8" d="M48.02374 156.8684H657.0237"/>
<path transform="matrix(1,0,0,1,26.97626,11.631592)" stroke-width=".5" stroke-linecap="butt" stroke-miterlimit="4" stroke-linejoin="miter" fill="none" stroke="#b8b8b8" d="M48.02374 36.86837H657.0237"/>
</g>
<g clip-path="url(#clip_4)">
<use data-text="0" xlink:href="#font_2_3" transform="matrix(10,0,0,-10,58.05626,530.9748)"/>
</g>
<g clip-path="url(#clip_5)">
<use data-text="1" xlink:href="#font_2_4" transform="matrix(10,0,0,-10,27.47626,411.35243)"/>
<use data-text="5" xlink:href="#font_2_8" transform="matrix(10,0,0,-10,33.03626,411.35243)"/>
<use data-text="0" xlink:href="#font_2_3" transform="matrix(10,0,0,-10,38.59626,411.35243)"/>
<use data-text="&#x00a0;" xlink:href="#font_6_1" transform="matrix(10,0,0,-10,44.156259,411.35243)"/>
<use data-text="0" xlink:href="#font_2_3" transform="matrix(10,0,0,-10,46.93626,411.35243)"/>
<use data-text="0" xlink:href="#font_2_3" transform="matrix(10,0,0,-10,52.49626,411.35243)"/>
<use data-text="0" xlink:href="#font_2_3" transform="matrix(10,0,0,-10,58.05626,411.35243)"/>
</g>
<g clip-path="url(#clip_7)">
<use data-text="3" xlink:href="#font_2_6" transform="matrix(10,0,0,-10,27.47626,291.73)"/>
<use data-text="0" xlink:href="#font_2_3" transform="matrix(10,0,0,-10,33.03626,291.73)"/>
<use data-text="0" xlink:href="#font_2_3" transform="matrix(10,0,0,-10,38.59626,291.73)"/>
<use data-text="&#x00a0;" xlink:href="#font_6_1" transform="matrix(10,0,0,-10,44.156259,291.73)"/>
<use data-text="0" xlink:href="#font_2_3" transform="matrix(10,0,0,-10,46.93626,291.73)"/>
<use data-text="0" xlink:href="#font_2_3" transform="matrix(10,0,0,-10,52.49626,291.73)"/>
<use data-text="0" xlink:href="#font_2_3" transform="matrix(10,0,0,-10,58.05626,291.73)"/>
</g>
<g clip-path="url(#clip_8)">
<use data-text="4" xlink:href="#font_2_7" transform="matrix(10,0,0,-10,27.47626,172.1076)"/>
<use data-text="5" xlink:href="#font_2_8" transform="matrix(10,0,0,-10,33.03626,172.1076)"/>
<use data-text="0" xlink:href="#font_2_3" transform="matrix(10,0,0,-10,38.59626,172.1076)"/>
<use data-text="&#x00a0;" xlink:href="#font_6_1" transform="matrix(10,0,0,-10,44.156259,172.1076)"/>
<use data-text="0" xlink:href="#font_2_3" transform="matrix(10,0,0,-10,46.93626,172.1076)"/>
<use data-text="0" xlink:href="#font_2_3" transform="matrix(10,0,0,-10,52.49626,172.1076)"/>
<use data-text="0" xlink:href="#font_2_3" transform="matrix(10,0,0,-10,58.05626,172.1076)"/>
</g>
<g clip-path="url(#clip_9)">
<use data-text="6" xlink:href="#font_2_9" transform="matrix(10,0,0,-10,27.47626,52.48529)"/>
<use data-text="0" xlink:href="#font_2_3" transform="matrix(10,0,0,-10,33.03626,52.48529)"/>
<use data-text="0" xlink:href="#font_2_3" transform="matrix(10,0,0,-10,38.59626,52.48529)"/>
<use data-text="&#x00a0;" xlink:href="#font_6_1" transform="matrix(10,0,0,-10,44.156259,52.48529)"/>
<use data-text="0" xlink:href="#font_2_3" transform="matrix(10,0,0,-10,46.93626,52.48529)"/>
<use data-text="0" xlink:href="#font_2_3" transform="matrix(10,0,0,-10,52.49626,52.48529)"/>
<use data-text="0" xlink:href="#font_2_3" transform="matrix(10,0,0,-10,58.05626,52.48529)"/>
</g>
<g clip-path="url(#clip_10)">
<path transform="matrix(1,0,0,1,26.97626,11.631592)" stroke-width="1" stroke-linecap="square" stroke-miterlimit="4" stroke-linejoin="miter" fill="none" stroke="#000000" d="M47.52374 515.8684H657.5237"/>
</g>
<g clip-path="url(#clip_11)">
<use data-text="0" xlink:href="#font_2_3" transform="matrix(10,0,0,-10,72.16122,541.1597)"/>
</g>
<g clip-path="url(#clip_12)">
<use data-text="1" xlink:href="#font_2_4" transform="matrix(10,0,0,-10,188.446,541.1597)"/>
<use data-text="0" xlink:href="#font_2_3" transform="matrix(10,0,0,-10,194.006,541.1597)"/>
<use data-text="0" xlink:href="#font_2_3" transform="matrix(10,0,0,-10,199.566,541.1597)"/>
</g>
<g clip-path="url(#clip_13)">
<use data-text="2" xlink:href="#font_2_5" transform="matrix(10,0,0,-10,310.2909,541.1597)"/>
<use data-text="0" xlink:href="#font_2_3" transform="matrix(10,0,0,-10,315.8509,541.1597)"/>
<use data-text="0" xlink:href="#font_2_3" transform="matrix(10,0,0,-10,321.4109,541.1597)"/>
</g>
<g clip-path="url(#clip_14)">
<use data-text="3" xlink:href="#font_2_6" transform="matrix(10,0,0,-10,432.1357,541.1597)"/>
<use data-text="0" xlink:href="#font_2_3" transform="matrix(10,0,0,-10,437.6957,541.1597)"/>
<use data-text="0" xlink:href="#font_2_3" transform="matrix(10,0,0,-10,443.2557,541.1597)"/>
</g>
<g clip-path="url(#clip_15)">
<use data-text="4" xlink:href="#font_2_7" transform="matrix(10,0,0,-10,553.9805,541.1597)"/>
<use data-text="0" xlink:href="#font_2_3" transform="matrix(10,0,0,-10,559.5405,541.1597)"/>
<use data-text="0" xlink:href="#font_2_3" transform="matrix(10,0,0,-10,565.1005,541.1597)"/>
</g>
<g clip-path="url(#clip_16)">
<use data-text="5" xlink:href="#font_2_8" transform="matrix(10,0,0,-10,675.8253,541.1597)"/>
<use data-text="0" xlink:href="#font_2_3" transform="matrix(10,0,0,-10,681.3853,541.1597)"/>
<use data-text="0" xlink:href="#font_2_3" transform="matrix(10,0,0,-10,686.9453,541.1597)"/>
</g>
<g clip-path="url(#clip_17)">
<g>
<g clip-path="url(#clip_18)">
<g clip-path="url(#clip_19)">
<path transform="matrix(1,0,0,1,74.94122,387.6896)" stroke-width="4" stroke-linecap="butt" stroke-miterlimit="4" stroke-linejoin="miter" fill="none" stroke="#007b76" d="M0 137.5615 1.218448 137.5216 2.436896 137.4809 3.655345 137.4394 4.873793 137.3971 6.092241 137.354 7.310689 137.3099 8.529138 137.265 9.747586 137.2192 10.96603 137.1725 12.18448 137.1249 13.40293 137.0763 14.62138 137.0267 15.83983 136.9761 17.05828 136.9245 18.27672 136.8719 19.49517 136.8182 20.71362 136.7635 21.93207 136.7077 23.15052 136.6507 24.36896 136.5926 25.58741 136.5334 26.80586 136.4729 28.02431 136.4113 29.24276 136.3484 30.46121 136.2843 31.67965 136.2189 32.8981 136.1521 34.11655 136.0841 35.335 136.0147 36.55345 135.9439 37.7719 135.8716 38.99034 135.798 40.20879 135.7228 41.42724 135.6462 42.64569 135.568 43.86414 135.4882 45.08258 135.4069 46.30103 135.3239 47.51948 135.2393 48.73793 135.153 49.95638 135.065 51.17483 134.9751 52.39327 134.8835 53.61172 134.7901 54.83017 134.6948 56.04862 134.5976 57.26707 134.4985 58.48552 134.3973 59.70396 134.2942 60.92241 134.1889 62.14086 134.0816 63.35931 133.9721 64.57776 133.8605 65.79621 133.7466 67.01465 133.6304 68.2331 133.5119 69.45155 133.3911 70.67 133.2678 71.88845 133.142 73.10689 133.0138 74.32534 132.8829 75.54379 132.7495 76.76224 132.6134 77.98069 132.4745 79.19914 132.3329 80.41758 132.1885 81.63603 132.0412 82.85448 131.8909 84.07293 131.7376 85.29138 131.5812 86.50983 131.4218 87.72827 131.2591 88.94672 131.0932 90.16517 130.9239 91.38362 130.7513 92.60207 130.5752 93.82051 130.3956 95.03896 130.2124 96.25741 130.0256 97.47586 129.835 98.69431 129.6406 99.91276 129.4423 101.1312 129.24 102.3497 129.0337 103.5681 128.8233 104.7865 128.6087 106.005 128.3897 107.2234 128.1664 108.4419 127.9386 109.6603 127.7063 110.8788 127.4693 112.0972 127.2276 113.3157 126.9811 114.5341 126.7296 115.7526 126.4731 116.971 126.2114 118.1895 125.9446 119.4079 125.6723 120.6264 125.3947 121.8448 125.1115 123.0633 124.8226 124.2817 124.528 125.5002 124.2274 126.7186 123.9209 127.9371 123.6082 129.1555 123.2892 130.374 122.9639 131.5924 122.6321 132.8109 122.2936 134.0293 121.9484 135.2478 121.5963 136.4662 121.2371 137.6847 120.8707 138.9031 120.497 140.1215 120.1159 141.34 119.7271 142.5584 119.3305 143.7769 118.926 144.9953 118.5134 146.2138 118.0926 147.4322 117.6634 148.6507 117.2255 149.8691 116.7789 151.0876 116.3234 152.306 115.8588 153.5245 115.3848 154.7429 114.9014"/>
<path transform="matrix(1,0,0,1,74.94122,387.6896)" stroke-width="4" stroke-linecap="butt" stroke-miterlimit="4" stroke-linejoin="miter" fill="none" stroke="#007b76" d="M154.7429 114.9014 155.9614 114.4084 157.1798 113.9054 158.3983 113.3924 159.6167 112.8692 160.8352 112.3354 162.0536 111.7911 163.2721 111.2358 164.4905 110.6694 165.709 110.0917 166.9274 109.5024 168.1459 108.9013 169.3643 108.2883 170.5828 107.6629 171.8012 107.0251 173.0197 106.3745 174.2381 105.7109 175.4565 105.034 176.675 104.3436 177.8934 103.6393 179.1119 102.921 180.3303 102.1883 181.5488 101.441 182.7672 100.6787 183.9857 99.90117 185.2041 99.10809 186.4226 98.29915 187.641 97.47402 188.8595 96.6324 190.0779 95.77395 191.2964 94.89832 192.5148 94.00518 193.7333 93.09418 194.9517 92.16496 196.1702 91.21716 197.3886 90.2504 198.6071 89.2643 199.8255 88.25849 201.044 87.23255 202.2624 86.1861 203.4809 85.11872 204.6993 84.02999 205.9178 82.91949 207.1362 81.78677 208.3546 80.6314 209.5731 79.45293 210.7915 78.25088 212.01 77.0248 213.2284 75.77419 214.4469 74.49857 215.6653 73.19744 216.8838 71.87028 218.1022 70.51659 219.3207 69.13581 220.5391 67.72743 221.7576 66.29087 222.976 64.82559 224.1945 63.33099 225.4129 61.80651 226.6314 60.25154 227.8498 58.66546 229.0683 57.04767 230.2867 55.39752 231.5052 53.73547 232.7236 52.12327 233.9421 50.55945 235.1605 49.04254 236.379 47.57113 237.5974 46.14387 238.8159 44.75943 240.0343 43.41652 241.2528 42.11389 242.4712 40.85035 243.6896 39.62471 244.9081 38.43584 246.1265 37.28264 247.345 36.16403 248.5634 35.07898 249.7819 34.02649 251.0003 33.00556 252.2188 32.01527 253.4372 31.05468 254.6557 30.12291 255.8741 29.2191 257.0926 28.3424 258.311 27.492 259.5295 26.66711 260.7479 25.86697 261.9664 25.09083 263.1848 24.33798 264.4033 23.60771 265.6217 22.89935 266.8402 22.21224 268.0586 21.54575 269.2771 20.89925 270.4955 20.27214 271.714 19.66385 272.9324 19.07381 274.1509 18.50147 275.3693 17.94629 276.5878 17.40778 277.8062 16.88542 279.0246 16.37873 280.2431 15.88724 281.4615 15.41049 282.68 14.94805 283.8984 14.49948 285.1169 14.06437 286.3353 13.64231 287.5538 13.23291 288.7722 12.8358 289.9907 12.45059 291.2091 12.07695 292.4276 11.71451 293.646 11.36295 294.8645 11.02193 296.0829 10.69115 297.3014 10.37029 298.5198 10.05905 299.7383 9.757149 300.9567 9.464307 302.1752 9.18025 303.3936 8.904715 304.6121 8.637445 305.8305 8.378194 307.049 8.126721 308.2674 7.882791 309.4859 7.64618"/>
<path transform="matrix(1,0,0,1,74.94122,387.6896)" stroke-width="4" stroke-linecap="butt" stroke-miterlimit="4" stroke-linejoin="miter" fill="none" stroke="#007b76" d="M309.4859 7.64618 310.7043 7.416666 311.9228 7.194038 313.1412 6.978089 314.3596 6.768619 315.5781 6.565433 316.7965 6.368342 318.015 6.177164 319.2334 5.991721 320.4519 5.811841 321.6703 5.637358 322.8888 5.46811 324.1072 5.303939 325.3257 5.144693 326.5441 4.990224 327.7626 4.840389 328.981 4.69505 330.1995 4.554071 331.4179 4.417321 332.6364 4.284673 333.8548 4.156005 335.0733 4.031197 336.2917 3.910133 337.5102 3.792702 338.7286 3.678793 339.9471 3.568301 341.1655 3.461124 342.384 3.357163 343.6024 3.25632 344.8209 3.158503 346.0393 3.06362 347.2577 2.971583 348.4762 2.882308 349.6946 2.795711 350.9131 2.711712 352.1315 2.630232 353.35 2.551198 354.5684 2.474534 355.7869 2.40017 357.0053 2.328037 358.2238 2.258068 359.4422 2.190198 360.6607 2.124364 361.8791 2.060506 363.0976 1.998563 364.316 1.938478 365.5345 1.880196 366.7529 1.823662 367.9714 1.768824 369.1898 1.715632 370.4083 1.664035 371.6267 1.613986 372.8452 1.565439 374.0636 1.518348 375.2821 1.472669 376.5005 1.428362 377.719 1.385383 378.9374 1.343694 380.1559 1.303255 381.3743 1.264029 382.5927 1.225981 383.8112 1.189073 385.0296 1.153273 386.2481 1.118547 387.4665 1.084863 388.685 1.052189 389.9034 1.020496 391.1219 .9897531 392.3403 .9599327 393.5588 .9310069 394.7772 .9029488 395.9957 .8757325 397.2141 .8493327 398.4326 .8237249 399.651 .7988853 400.8695 .7747909 402.0879 .7514194 403.3064 .7287489 404.5248 .7067586 405.7433 .685428 406.9617 .6647374 408.1802 .6446674 409.3986 .6251996 410.6171 .6063157 411.8355 .5879984 413.054 .5702306 414.2724 .5529959 415.4909 .5362782 416.7093 .520062 417.9277 .5043323 419.1462 .4890745 420.3646 .4742744 421.5831 .4599183 422.8015 .445993 424.02 .4324853 425.2384 .4193829 426.4569 .4066736 427.6753 .3943456 428.8938 .3823874 430.1122 .3707879 431.3307 .3595364 432.5491 .3486225 433.7676 .338036 434.986 .3277671 436.2045 .3178062 437.4229 .3081442 438.6414 .298772 439.8598 .289681 441.0783 .2808628 442.2967 .2723091 443.5152 .2640119 444.7336 .2559638 445.9521 .248157 447.1705 .2405845 448.389 .2332391 449.6074 .2261141 450.8258 .2192028 452.0443 .2124989 453.2627 .2059961 454.4812 .1996884 455.6996 .1935699 456.9181 .187635 458.1365 .1818781 459.355 .1762939 460.5734 .1708772 461.7919 .1656231 463.0103 .1605266 464.2288 .1555829"/>
<path transform="matrix(1,0,0,1,74.94122,387.6896)" stroke-width="4" stroke-linecap="butt" stroke-miterlimit="4" stroke-linejoin="miter" fill="none" stroke="#007b76" d="M464.2288 .1555829 465.4472 .1507876 466.6657 .1461361 467.8841 .1416242 469.1026 .1372477 470.321 .1330024 471.5395 .1288845 472.7579 .1248901 473.9764 .1210156 475.1948 .1172573 476.4133 .1136117 477.6317 .1100755 478.8502 .1066454 480.0686 .1033182 481.2871 .1000908 482.5055 .09696028 483.724 .09392363 484.9424 .09097809 486.1608 .08812091 487.3793 .08534944 488.5977 .08266113 489.8162 .08005346 491.0346 .07752402 492.2531 .07507046 493.4715 .07269051 494.69 .07038196 495.9084 .06814266 497.1269 .06597055 498.3453 .06386359 499.5638 .06181985 500.7822 .05983742 502.0007 .05791446 503.2191 .05604919 504.4376 .05423988 505.656 .05248484 506.8745 .05078246 508.0929 .04913115 509.3114 .04752938 510.5298 .04597566 511.7483 .04446856 512.9667 .04300666 514.1852 .04158863 515.4036 .04021313 516.6221 .0388789 517.8405 .0375847 519.059 .03632932 520.2774 .03511161 521.4958 .03393042 522.7143 .03278467 523.9327 .0316733 525.1512 .03059526 526.3696 .02954957 527.5881 .02853524 528.8065 .02755135 530.025 .02659697 531.2434 .02567123 532.4619 .02477325 533.6803 .02390222 534.8988 .02305732 536.1172 .02223776 537.3357 .02144279 538.5541 .02067167 539.7726 .01992368 540.991 .01919814 542.2095 .01849436 543.4279 .01781169 544.6464 .0171495 545.8648 .01650718 547.0833 .01588413 548.3017 .01527977 549.5202 .01469354 550.7386 .0141249 551.9571 .01357331 553.1755 .01303828 554.394 .01251929 555.6124 .01201588 556.8308 .01152757 558.0493 .0110539 559.2677 .01059445 560.4862 .01014878 561.7046 .00971648 562.9231 .009297149 564.1415 .008890398 565.36 .00849585 566.5784 .008113138 567.7969 .007741908 569.0153 .007381814 570.2338 .007032523 571.4522 .006693711 572.6707 .006365064 573.8891 .006046275 575.1076 .005737051 576.326 .005437103 577.5445 .005146154 578.7629 .004863933 579.9814 .004590178 581.1998 .004324637 582.4183 .004067061 583.6367 .003817213 584.8552 .00357486 586.0736 .003339778 587.2921 .003111748 588.5105 .00289056 589.7289 .002676006 590.9474 .00246789 592.1658 .002266017 593.3843 .0020702 594.6027 .001880258 595.8212 .001696014 597.0396 .001517297 598.2581 .001343942 599.4765 .001175787 600.695 .001012677 601.9134 .0008544604 603.1319 .0007009903 604.3503 .0005521242 605.5688 .0004077241 606.7872 .0002676561 608.0057 .00013179 609.2241 0"/>
</g>
</g>
</g>
</g>
<g clip-path="url(#clip_20)">
<g>
<g clip-path="url(#clip_21)">
<g clip-path="url(#clip_22)">
<path transform="matrix(1,0,0,1,74.94122,110.67639)" stroke-width="4" stroke-linecap="butt" stroke-miterlimit="4" stroke-linejoin="miter" fill="none" stroke="#61d836" d="M0 406.5998 1.218448 406.4004 2.436896 406.1971 3.655345 405.9897 4.873793 405.7781 6.092241 405.5623 7.310689 405.3422 8.529138 405.1176 9.747586 404.8886 10.96603 404.655 12.18448 404.4168 13.40293 404.1737 14.62138 403.9258 15.83983 403.673 17.05828 403.4151 18.27672 403.152 19.49517 402.8837 20.71362 402.61 21.93207 402.3308 23.15052 402.0461 24.36896 401.7556 25.58741 401.4594 26.80586 401.1572 28.02431 400.849 29.24276 400.5346 30.46121 400.2139 31.67965 399.8868 32.8981 399.5532 34.11655 399.2129 35.335 398.8658 36.55345 398.5117 37.7719 398.1506 38.99034 397.7822 40.20879 397.4065 41.42724 397.0233 42.64569 396.6324 43.86414 396.2337 45.08258 395.827 46.30103 395.4121 47.51948 394.989 48.73793 394.5574 49.95638 394.1172 51.17483 393.6682 52.39327 393.2102 53.61172 392.743 54.83017 392.2665 56.04862 391.7805 57.26707 391.2847 58.48552 390.7791 59.70396 390.2633 60.92241 389.7372 62.14086 389.2005 63.35931 388.6532 64.57776 388.0949 65.79621 387.5254 67.01465 386.9446 68.2331 386.3521 69.45155 385.7478 70.67 385.1313 71.88845 384.5026 73.10689 383.8613 74.32534 383.2071 75.54379 382.5399 76.76224 381.8594 77.98069 381.1652 79.19914 380.4571 80.41758 379.7349 81.63603 378.9982 82.85448 378.2468 84.07293 377.4804 85.29138 376.6986 86.50983 375.9012 87.72827 375.0879 88.94672 374.2583 90.16517 373.4121 91.38362 372.549 92.60207 371.6686 93.82051 370.7706 95.03896 369.8546 96.25741 368.9203 97.47586 367.9674 98.69431 366.9954 99.91276 366.0039 101.1312 364.9926 102.3497 363.9611 103.5681 362.9089 104.7865 361.8358 106.005 360.7411 107.2234 359.6246 108.4419 358.4857 109.6603 357.324 110.8788 356.1391 112.0972 354.9306 113.3157 353.6978 114.5341 352.4404 115.7526 351.1578 116.971 349.8496 118.1895 348.5153 119.4079 347.1542 120.6264 345.7659 121.8448 344.3499 123.0633 342.9055 124.2817 341.4322 125.5002 339.9295 126.7186 338.3967 127.9371 336.8333 129.1555 335.2386 130.374 333.612 131.5924 331.9529 132.8109 330.2606 134.0293 328.5344 135.2478 326.7737 136.4662 324.9778 137.6847 323.146 138.9031 321.2776 140.1215 319.3718 141.34 317.4278 142.5584 315.445 143.7769 313.4226 144.9953 311.3597 146.2138 309.2555 147.4322 307.1092 148.6507 304.92 149.8691 302.6871 151.0876 300.4094 152.306 298.0863 153.5245 295.7166 154.7429 293.2996"/>
<path transform="matrix(1,0,0,1,74.94122,110.67639)" stroke-width="4" stroke-linecap="butt" stroke-miterlimit="4" stroke-linejoin="miter" fill="none" stroke="#61d836" d="M154.7429 293.2996 155.9614 290.8342 157.1798 288.3195 158.3983 285.7546 159.6167 283.1383 160.8352 280.4697 162.0536 277.7477 163.2721 274.9713 164.4905 272.1394 165.709 269.2508 166.9274 266.3044 168.1459 263.2991 169.3643 260.2338 170.5828 257.1071 171.8012 253.9178 173.0197 250.6648 174.2381 247.3468 175.4565 243.9623 176.675 240.5102 177.8934 236.9891 179.1119 233.3975 180.3303 229.734 181.5488 225.9974 182.7672 222.1859 183.9857 218.2983 185.2041 214.3329 186.4226 210.2882 187.641 206.1626 188.8595 201.9545 190.0779 197.6622 191.2964 193.2841 192.5148 188.8184 193.7333 184.2634 194.9517 179.6173 196.1702 174.8783 197.3886 170.0445 198.6071 165.114 199.8255 160.0849 201.044 154.9552 202.2624 149.723 203.4809 144.3861 204.6993 138.9424 205.9178 133.3899 207.1362 127.7263 208.3546 121.9495 209.5731 116.0571 210.7915 110.0469 212.01 103.9165 213.2284 97.66341 214.4469 91.28531 215.6653 84.77965 216.8838 78.14388 218.1022 71.37539 219.3207 64.47153 220.5391 57.4296 221.7576 50.24682 222.976 42.92039 224.1945 35.44743 225.4129 27.82501 226.6314 20.05015 227.8498 12.11978 229.0683 4.030811 230.2867 0 231.5052 8.310267 232.7236 16.37123 233.9421 24.19036 235.1605 31.77491 236.379 39.13193 237.5974 46.26824 238.8159 53.19046 240.0343 59.90502 241.2528 66.41813 242.4712 72.73586 243.6896 78.86405 244.9081 84.80839 246.1265 90.57441 247.345 96.16744 248.5634 101.5927 249.7819 106.8552 251.0003 111.9598 252.2188 116.9113 253.4372 121.7142 254.6557 126.373 255.8741 130.8921 257.0926 135.2756 258.311 139.5276 259.5295 143.652 260.7479 147.6528 261.9664 151.5334 263.1848 155.2977 264.4033 158.949 265.6217 162.4908 266.8402 165.9264 268.0586 169.2589 269.2771 172.4914 270.4955 175.6269 271.714 178.6683 272.9324 181.6186 274.1509 184.4803 275.3693 187.2561 276.5878 189.9487 277.8062 192.5605 279.0246 195.094 280.2431 197.5514 281.4615 199.9351 282.68 202.2474 283.8984 204.4902 285.1169 206.6658 286.3353 208.7761 287.5538 210.823 288.7722 212.8086 289.9907 214.7346 291.2091 216.6029 292.4276 218.415 293.646 220.1729 294.8645 221.8779 296.0829 223.5319 297.3014 225.1362 298.5198 226.6924 299.7383 228.2019 300.9567 229.6661 302.1752 231.0864 303.3936 232.464 304.6121 233.8004 305.8305 235.0966 307.049 236.354 308.2674 237.5736 309.4859 238.7567"/>
<path transform="matrix(1,0,0,1,74.94122,110.67639)" stroke-width="4" stroke-linecap="butt" stroke-miterlimit="4" stroke-linejoin="miter" fill="none" stroke="#61d836" d="M309.4859 238.7567 310.7043 239.9043 311.9228 241.0174 313.1412 242.0972 314.3596 243.1445 315.5781 244.1604 316.7965 245.1459 318.015 246.1018 319.2334 247.029 320.4519 247.9284 321.6703 248.8008 322.8888 249.6471 324.1072 250.4679 325.3257 251.2641 326.5441 252.0365 327.7626 252.7857 328.981 253.5124 330.1995 254.2172 331.4179 254.901 332.6364 255.5642 333.8548 256.2076 335.0733 256.8316 336.2917 257.4369 337.5102 258.0241 338.7286 258.5936 339.9471 259.1461 341.1655 259.682 342.384 260.2018 343.6024 260.706 344.8209 261.1951 346.0393 261.6695 347.2577 262.1297 348.4762 262.5761 349.6946 263.009 350.9131 263.429 352.1315 263.8364 353.35 264.2316 354.5684 264.6149 355.7869 264.9868 357.0053 265.3474 358.2238 265.6973 359.4422 266.0366 360.6607 266.3658 361.8791 266.6851 363.0976 266.9948 364.316 267.2952 365.5345 267.5866 366.7529 267.8693 367.9714 268.1435 369.1898 268.4094 370.4083 268.6674 371.6267 268.9177 372.8452 269.1604 374.0636 269.3959 375.2821 269.6243 376.5005 269.8458 377.719 270.0607 378.9374 270.2691 380.1559 270.4713 381.3743 270.6675 382.5927 270.8577 383.8112 271.0422 385.0296 271.2212 386.2481 271.3949 387.4665 271.5633 388.685 271.7267 389.9034 271.8851 391.1219 272.0388 392.3403 272.1879 393.5588 272.3326 394.7772 272.4729 395.9957 272.6089 397.2141 272.7409 398.4326 272.869 399.651 272.9932 400.8695 273.1136 402.0879 273.2305 403.3064 273.3439 404.5248 273.4538 405.7433 273.5605 406.9617 273.6639 408.1802 273.7643 409.3986 273.8616 410.6171 273.956 411.8355 274.0476 413.054 274.1364 414.2724 274.2226 415.4909 274.3062 416.7093 274.3873 417.9277 274.4659 419.1462 274.5422 420.3646 274.6162 421.5831 274.688 422.8015 274.7576 424.02 274.8252 425.2384 274.8907 426.4569 274.9542 427.6753 275.0159 428.8938 275.0757 430.1122 275.1337 431.3307 275.1899 432.5491 275.2445 433.7676 275.2974 434.986 275.3488 436.2045 275.3986 437.4229 275.4469 438.6414 275.4937 439.8598 275.5392 441.0783 275.5833 442.2967 275.6261 443.5152 275.6675 444.7336 275.7078 445.9521 275.7468 447.1705 275.7847 448.389 275.8214 449.6074 275.857 450.8258 275.8916 452.0443 275.9251 453.2627 275.9576 454.4812 275.9892 455.6996 276.0198 456.9181 276.0494 458.1365 276.0782 459.355 276.1061 460.5734 276.1332 461.7919 276.1595 463.0103 276.185 464.2288 276.2097"/>
<path transform="matrix(1,0,0,1,74.94122,110.67639)" stroke-width="4" stroke-linecap="butt" stroke-miterlimit="4" stroke-linejoin="miter" fill="none" stroke="#61d836" d="M464.2288 276.2097 465.4472 276.2337 466.6657 276.2569 467.8841 276.2795 469.1026 276.3014 470.321 276.3226 471.5395 276.3432 472.7579 276.3631 473.9764 276.3825 475.1948 276.4013 476.4133 276.4195 477.6317 276.4372 478.8502 276.4544 480.0686 276.471 481.2871 276.4871 482.5055 276.5028 483.724 276.518 484.9424 276.5327 486.1608 276.547 487.3793 276.5609 488.5977 276.5743 489.8162 276.5873 491.0346 276.6 492.2531 276.6122 493.4715 276.6241 494.69 276.6357 495.9084 276.6469 497.1269 276.6577 498.3453 276.6683 499.5638 276.6785 500.7822 276.6884 502.0007 276.698 503.2191 276.7074 504.4376 276.7164 505.656 276.7252 506.8745 276.7337 508.0929 276.7419 509.3114 276.75 510.5298 276.7577 511.7483 276.7653 512.9667 276.7726 514.1852 276.7797 515.4036 276.7865 516.6221 276.7932 517.8405 276.7997 519.059 276.806 520.2774 276.812 521.4958 276.8179 522.7143 276.8237 523.9327 276.8292 525.1512 276.8346 526.3696 276.8399 527.5881 276.8449 528.8065 276.8498 530.025 276.8546 531.2434 276.8592 532.4619 276.8637 533.6803 276.8681 534.8988 276.8723 536.1172 276.8764 537.3357 276.8804 538.5541 276.8842 539.7726 276.888 540.991 276.8916 542.2095 276.8951 543.4279 276.8985 544.6464 276.9019 545.8648 276.9051 547.0833 276.9082 548.3017 276.9112 549.5202 276.9141 550.7386 276.917 551.9571 276.9197 553.1755 276.9224 554.394 276.925 555.6124 276.9275 556.8308 276.93 558.0493 276.9323 559.2677 276.9346 560.4862 276.9369 561.7046 276.939 562.9231 276.9411 564.1415 276.9431 565.36 276.9451 566.5784 276.947 567.7969 276.9489 569.0153 276.9507 570.2338 276.9524 571.4522 276.9541 572.6707 276.9558 573.8891 276.9574 575.1076 276.9589 576.326 276.9604 577.5445 276.9619 578.7629 276.9633 579.9814 276.9646 581.1998 276.966 582.4183 276.9673 583.6367 276.9685 584.8552 276.9697 586.0736 276.9709 587.2921 276.972 588.5105 276.9731 589.7289 276.9742 590.9474 276.9753 592.1658 276.9763 593.3843 276.9772 594.6027 276.9782 595.8212 276.9791 597.0396 276.98 598.2581 276.9809 599.4765 276.9817 600.695 276.9825 601.9134 276.9833 603.1319 276.9841 604.3503 276.9848 605.5688 276.9856 606.7872 276.9863 608.0057 276.9869 609.2241 276.9876"/>
</g>
</g>
</g>
</g>
<g clip-path="url(#clip_23)">
<g>
<g clip-path="url(#clip_24)">
<g clip-path="url(#clip_25)">
<path transform="matrix(1,0,0,1,231.6877,552.68466)" stroke-width="2.250172" stroke-linecap="butt" stroke-miterlimit="4" stroke-linejoin="miter" fill="none" stroke="#61d836" d="M.3122991 6.315371H12.3123"/>
</g>
</g>
</g>
<use data-text="R" xlink:href="#font_2_11" transform="matrix(13,0,0,-13,251.9606,563.42166)"/>
<use data-text="e" xlink:href="#font_2_15" transform="matrix(13,0,0,-13,260.8656,563.42166)"/>
<use data-text="w" xlink:href="#font_2_22" transform="matrix(13,0,0,-13,267.8466,563.42166)"/>
<use data-text="a" xlink:href="#font_2_13" transform="matrix(13,0,0,-13,277.7006,563.42166)"/>
<use data-text="r" xlink:href="#font_2_19" transform="matrix(13,0,0,-13,284.6816,563.42166)"/>
<use data-text="d" xlink:href="#font_2_14" transform="matrix(13,0,0,-13,288.7766,563.42166)"/>
<use data-text="s" xlink:href="#font_2_20" transform="matrix(13,0,0,-13,296.4856,563.42166)"/>
</g>
<g clip-path="url(#clip_26)">
<g>
<g clip-path="url(#clip_27)">
<g clip-path="url(#clip_28)">
<path transform="matrix(1,0,0,1,475.6211,552.68466)" stroke-width="2.250172" stroke-linecap="butt" stroke-miterlimit="4" stroke-linejoin="miter" fill="none" stroke="#007b76" d="M.3788541 6.315371H12.37885"/>
</g>
</g>
</g>
<use data-text="F" xlink:href="#font_2_10" transform="matrix(13,0,0,-13,495.8941,563.42166)"/>
<use data-text="e" xlink:href="#font_2_15" transform="matrix(13,0,0,-13,503.3561,563.42166)"/>
<use data-text="e" xlink:href="#font_2_15" transform="matrix(13,0,0,-13,510.3371,563.42166)"/>
<use data-text="s" xlink:href="#font_2_20" transform="matrix(13,0,0,-13,517.3181,563.42166)"/>
</g>
</g>
</svg>
